<svg width="54" height="40" viewBox="0 0 54 40" fill="none"
     xmlns="http://www.w3.org/2000/svg">
    <path
            d="M20 18C18.9 18 18 18.9 18 20C18 21.1 18.9 22 20 22C21.1 22 22 21.1 22 20C22 18.9 21.1 18 20 18Z"
            stroke="#292D32" stroke-width="1.5"/>
    <path
            d="M34 18C32.9 18 32 18.9 32 20C32 21.1 32.9 22 34 22C35.1 22 36 21.1 36 20C36 18.9 35.1 18 34 18Z"
            stroke="#292D32" stroke-width="1.5"/>
    <path
            d="M27 18C25.9 18 25 18.9 25 20C25 21.1 25.9 22 27 22C28.1 22 29 21.1 29 20C29 18.9 28.1 18 27 18Z"
            stroke="#292D32" stroke-width="1.5"/>
</svg>