<svg width="100" height="35" viewBox="0 0 100 35" fill="none" xmlns="http://www.w3.org/2000/svg">
<g clip-path="url(#clip0_4138_14301)">
<path d="M17.2414 32.7997C8.65888 32.7997 1.6764 25.8172 1.6764 17.235C1.6764 8.65224 8.65888 1.67002 17.2414 1.67002C25.8239 1.67002 32.8064 8.65224 32.8064 17.235C32.8064 25.8172 25.8239 32.7997 17.2414 32.7997ZM17.2414 -0.00637817C7.73448 -0.00637817 0 7.7281 0 17.235C0 26.7419 7.73448 34.4764 17.2414 34.4764C26.7483 34.4764 34.4828 26.7419 34.4828 17.235C34.4828 7.7281 26.7483 -0.00637817 17.2414 -0.00637817Z" fill="url(#paint0_linear_4138_14301)"/>
<path d="M25.6179 25.6122H8.86328V8.8575H25.6179V25.6122Z" fill="#222222"/>
<path d="M61.0717 8.61432V25.8557H57.6762V18.4668H48.223V25.8557H44.8281V8.61432H48.223V15.7319H57.6762V8.61432H61.0717Z" fill="#222222"/>
<path d="M67.9444 8.61432L72.2543 14.3776L76.5627 8.61432H80.5327L74.3949 16.8898L81.0286 25.8557H77.007L72.2543 19.5748L67.5272 25.8557H63.6094L70.2166 17.0133L64.0272 8.61432H67.9444Z" fill="#10213B"/>
<path d="M90.8083 18.5903H87.4126V25.8557H84.0703V8.61432H87.4126V15.8311H90.9126L96.1618 8.61432H99.7661L93.5238 16.9641L100.001 25.8557H96.1618L90.8083 18.5903Z" fill="#222222"/>
</g>
<defs>
<linearGradient id="paint0_linear_4138_14301" x1="0.573121" y1="34.4764" x2="35.2494" y2="33.6873" gradientUnits="userSpaceOnUse">
<stop/>
<stop offset="1"/>
</linearGradient>
<clipPath id="clip0_4138_14301">
<rect width="100" height="34.4828" fill="white" transform="translate(0 -0.00637817)"/>
</clipPath>
</defs>
</svg>
