<svg width="116" height="40" viewBox="0 0 116 40" fill="none" xmlns="http://www.w3.org/2000/svg">
    <path d="M20 38.0551C10.0443 38.0551 1.94462 29.9554 1.94462 20C1.94462 10.044 10.0443 1.94462 20 1.94462C29.9557 1.94462 38.0554 10.044 38.0554 20C38.0554 29.9554 29.9557 38.0551 20 38.0551ZM20 0C8.972 0 0 8.972 0 20C0 31.028 8.972 40 20 40C31.028 40 40 31.028 40 20C40 8.972 31.028 0 20 0Z"
          fill="url(#paint0_linear_3911_7597)"/>
    <path d="M29.7177 29.7175H10.2823V10.2821H29.7177V29.7175Z" fill="#222222"/>
    <path d="M70.8426 10V30H66.9038V21.4289H55.938V30H52V10H55.938V18.2564H66.9038V10H70.8426Z" fill="#222222"/>
    <path d="M78.8177 10L83.8172 16.6854L88.8149 10H93.4202L86.3003 19.5996L93.9954 30H89.3304L83.8172 22.7142L78.3338 30H73.7891L81.4535 19.7428L74.2738 10H78.8177Z"
          fill="#10213B"/>
    <path d="M105.337 21.5721H101.398V30H97.5209V10H101.398V18.3715H105.458L111.547 10H115.728L108.487 19.6857L116 30H111.547L105.337 21.5721Z"
          fill="#222222"/>
    <defs>
        <linearGradient id="paint0_linear_3911_7597" x1="0.66482" y1="40" x2="40.8893" y2="39.0847"
                        gradientUnits="userSpaceOnUse">
            <stop stop-color="black"/>
            <stop offset="1" stop-color="#black"/>
        </linearGradient>
    </defs>
</svg>
