<svg width="27" height="25" viewBox="0 0 27 25" fill="none" xmlns="http://www.w3.org/2000/svg">
    <path d="M24.2626 5.17001V17.24C24.2626 18.2 23.4248 19.1 22.3936 19.22L22.0391 19.26C19.6974 19.55 16.0882 20.66 14.0258 21.72C13.7465 21.87 13.2847 21.87 12.9946 21.72L12.9516 21.7C10.8892 20.65 7.29083 19.55 4.95989 19.26L4.64834 19.22C3.61714 19.1 2.7793 18.2 2.7793 17.24V5.16C2.7793 3.97 3.82121 3.07001 5.09947 3.17001C7.35522 3.34001 10.7711 4.40003 12.6831 5.51003L12.9516 5.66C13.2631 5.84 13.7788 5.84 14.0903 5.66L14.2729 5.55001C14.9496 5.16001 15.8089 4.77001 16.7435 4.42001V8.50002L18.8918 7.17001L21.0401 8.50002V3.28005C21.3302 3.23005 21.6095 3.20002 21.8673 3.18002H21.9317C23.21 3.08002 24.2626 3.97001 24.2626 5.17001Z" stroke="black" stroke-width="1.5" stroke-linecap="round" stroke-linejoin="round"/>
    <path d="M13.5215 5.98999V20.99" stroke="black" stroke-width="1.5" stroke-linecap="round" stroke-linejoin="round"/>
    <path d="M21.0408 3.28003V8.5L18.8925 7.16998L16.7441 8.5V4.41998C18.1513 3.89998 19.7196 3.48003 21.0408 3.28003Z" stroke="black" stroke-width="1.5" stroke-linecap="round" stroke-linejoin="round"/>
</svg>
