<svg width="25" height="24" viewBox="0 0 25 24" fill="none" xmlns="http://www.w3.org/2000/svg">
    <path d="M11.3809 6V19.91C11.3809 20.62 10.6609 21.11 10.0109 20.84C8.15086 20.06 5.84086 19.38 4.20086 19.16L3.89086 19.12C2.92086 19 2.13086 18.11 2.13086 17.14V5.25C2.13086 4.05 3.10086 3.08 4.30086 3.08H4.37086C6.25086 3.24 9.02086 4.12 10.8509 5.11C11.1809 5.29 11.3809 5.62 11.3809 6Z" fill="url(#paint0_linear_4141_836)"/>
    <path d="M19.9609 3.08H19.9009C19.6609 3.1 19.4009 3.13 19.1309 3.18C17.9009 3.38 16.4409 3.8 15.1309 4.32C14.5109 4.57 13.9309 4.84 13.4209 5.11C13.0909 5.29 12.8809 5.63 12.8809 6V19.91C12.8809 20.62 13.6009 21.11 14.2509 20.84C16.1109 20.06 18.4209 19.38 20.0609 19.16L20.3709 19.12C21.3409 19 22.1309 18.11 22.1309 17.14V5.25C22.1309 4.05 21.1609 3.08 19.9609 3.08ZM19.4009 13.73C19.4009 14.12 19.1209 14.29 18.7809 14.1L17.7209 13.51C17.6109 13.45 17.4309 13.45 17.3109 13.51L16.2509 14.1C15.9109 14.29 15.6309 14.12 15.6309 13.73V10.66C15.6309 10.2 16.0109 9.82 16.4709 9.82H18.5709C19.0309 9.82 19.4109 10.2 19.4109 10.66V13.73H19.4009Z" fill="url(#paint1_linear_4141_836)"/>
    <defs>
        <linearGradient id="paint0_linear_4141_836" x1="2.13086" y1="11.9977" x2="11.3809" y2="11.9977" gradientUnits="userSpaceOnUse">
            <stop stop-color="#052E70"/>
            <stop offset="1" stop-color="#042253"/>
        </linearGradient>
        <linearGradient id="paint1_linear_4141_836" x1="12.8809" y1="11.9977" x2="22.1309" y2="11.9977" gradientUnits="userSpaceOnUse">
            <stop stop-color="#052E70"/>
            <stop offset="1" stop-color="#042253"/>
        </linearGradient>
    </defs>
</svg>