<svg width="25" height="25" viewBox="0 0 25 25" fill="none" xmlns="http://www.w3.org/2000/svg">
    <path d="M21.6444 8.51L15.0944 3.27C13.8144 2.25 11.8144 2.24 10.5444 3.26L3.99442 8.51C3.05442 9.26 2.48442 10.76 2.68442 11.94L3.94442 19.48C4.23442 21.17 5.80442 22.5 7.51442 22.5H18.1144C19.8044 22.5 21.4044 21.14 21.6944 19.47L22.9544 11.93C23.1344 10.76 22.5644 9.26 21.6444 8.51ZM13.5644 18.5C13.5644 18.91 13.2244 19.25 12.8144 19.25C12.4044 19.25 12.0644 18.91 12.0644 18.5V15.5C12.0644 15.09 12.4044 14.75 12.8144 14.75C13.2244 14.75 13.5644 15.09 13.5644 15.5V18.5Z" fill="url(#paint0_linear_4141_764)"/>
    <defs>
        <linearGradient id="paint0_linear_4141_764" x1="2.64453" y1="12.5" x2="22.9875" y2="12.5" gradientUnits="userSpaceOnUse">
            <stop stop-color="#052E70"/>
            <stop offset="1" stop-color="#042253"/>
        </linearGradient>
    </defs>
</svg>
