<svg width="25" height="24" viewBox="0 0 25 24" fill="none" xmlns="http://www.w3.org/2000/svg">
    <path d="M9.63588 4.6C8.83588 1.14 3.62588 1.13 2.82588 4.6C2.35588 6.63 3.64588 8.35 4.76588 9.42C5.58588 10.19 6.87588 10.19 7.69588 9.42C8.81588 8.35 10.0959 6.63 9.63588 4.6ZM6.26588 6.2C5.71588 6.2 5.26588 5.75 5.26588 5.2C5.26588 4.65 5.70588 4.2 6.25588 4.2H6.26588C6.82588 4.2 7.26588 4.65 7.26588 5.2C7.26588 5.75 6.82588 6.2 6.26588 6.2Z" fill="url(#paint0_linear_4052_3123)"/>
    <path d="M22.6659 16.6C21.8659 13.14 16.6359 13.13 15.8259 16.6C15.3559 18.63 16.6459 20.35 17.7759 21.42C18.5959 22.19 19.8959 22.19 20.7159 21.42C21.8459 20.35 23.1359 18.63 22.6659 16.6ZM19.2859 18.2C18.7359 18.2 18.2859 17.75 18.2859 17.2C18.2859 16.65 18.7259 16.2 19.2759 16.2H19.2859C19.8359 16.2 20.2859 16.65 20.2859 17.2C20.2859 17.75 19.8359 18.2 19.2859 18.2Z" fill="url(#paint1_linear_4052_3123)"/>
    <path d="M12.7553 19.75H10.0753C8.91531 19.75 7.90531 19.05 7.50531 17.97C7.09531 16.89 7.39531 15.7 8.26531 14.93L16.2553 7.94C16.7353 7.52 16.7453 6.95 16.6053 6.56C16.4553 6.17 16.0753 5.75 15.4353 5.75H12.7553C12.3453 5.75 12.0053 5.41 12.0053 5C12.0053 4.59 12.3453 4.25 12.7553 4.25H15.4353C16.5953 4.25 17.6053 4.95 18.0053 6.03C18.4153 7.11 18.1153 8.3 17.2453 9.07L9.25531 16.06C8.77531 16.48 8.76531 17.05 8.90531 17.44C9.05531 17.83 9.43531 18.25 10.0753 18.25H12.7553C13.1653 18.25 13.5053 18.59 13.5053 19C13.5053 19.41 13.1653 19.75 12.7553 19.75Z" fill="url(#paint2_linear_4052_3123)"/>
    <defs>
        <linearGradient id="paint0_linear_4052_3123" x1="2.72656" y1="5.99938" x2="9.73204" y2="5.99938" gradientUnits="userSpaceOnUse">
            <stop stop-color="#052E70"/>
            <stop offset="1" stop-color="#042253"/>
        </linearGradient>
        <linearGradient id="paint1_linear_4052_3123" x1="15.7266" y1="17.9994" x2="22.7651" y2="17.9994" gradientUnits="userSpaceOnUse">
            <stop stop-color="#052E70"/>
            <stop offset="1" stop-color="#042253"/>
        </linearGradient>
        <linearGradient id="paint2_linear_4052_3123" x1="7.32422" y1="12" x2="18.1864" y2="12" gradientUnits="userSpaceOnUse">
            <stop stop-color="#052E70"/>
            <stop offset="1" stop-color="#042253"/>
        </linearGradient>
    </defs>
</svg>
