<svg width="25" height="24" viewBox="0 0 25 24" fill="none" xmlns="http://www.w3.org/2000/svg">
    <path d="M2.60521 4.6C3.40521 1.14 8.61521 1.14 9.40521 4.6C9.87521 6.63 8.58521 8.35 7.46521 9.42C6.64521 10.2 5.35521 10.19 4.53521 9.42C3.42521 8.35 2.13521 6.63 2.60521 4.6Z" stroke="black" stroke-width="1.5"/>
    <path d="M15.6052 16.6C16.4052 13.14 21.6452 13.14 22.4452 16.6C22.9152 18.63 21.6252 20.35 20.4952 21.42C19.6752 22.2 18.3752 22.19 17.5552 21.42C16.4252 20.35 15.1352 18.63 15.6052 16.6Z" stroke="black" stroke-width="1.5"/>
    <path d="M12.5349 5H15.2149C17.0649 5 17.9249 7.29 16.5349 8.51L8.54486 15.5C7.15486 16.71 8.01486 19 9.85486 19H12.5349" stroke="black" stroke-width="1.5" stroke-linecap="round" stroke-linejoin="round"/>
    <path d="M6.02088 5.5H6.03244" stroke="black" stroke-width="2" stroke-linecap="round" stroke-linejoin="round"/>
    <path d="M19.0209 17.5H19.0324" stroke="black" stroke-width="2" stroke-linecap="round" stroke-linejoin="round"/>
</svg>
