<svg width="24" height="24" viewBox="0 0 24 24" fill="none" xmlns="http://www.w3.org/2000/svg">
    <path d="M18.5 19.5H14.5" stroke="#292D32" stroke-width="1.5" stroke-linecap="round" stroke-linejoin="round"/>
    <path d="M16.5 21.5V17.5" stroke="#292D32" stroke-width="1.5" stroke-linecap="round" stroke-linejoin="round"/>
    <path d="M12.1586 10.87C12.0586 10.86 11.9386 10.86 11.8286 10.87C9.44863 10.79 7.55863 8.84 7.55863 6.44C7.54863 3.99 9.53863 2 11.9886 2C14.4386 2 16.4286 3.99 16.4286 6.44C16.4286 8.84 14.5286 10.79 12.1586 10.87Z" stroke="#292D32" stroke-width="1.5" stroke-linecap="round" stroke-linejoin="round"/>
    <path d="M11.9891 21.8101C10.1691 21.8101 8.35906 21.3501 6.97906 20.4301C4.55906 18.8101 4.55906 16.1701 6.97906 14.5601C9.72906 12.7201 14.2391 12.7201 16.9891 14.5601" stroke="#292D32" stroke-width="1.5" stroke-linecap="round" stroke-linejoin="round"/>
</svg>
